name ./resultDataOpenSim/trcMotMarkerGrf/sub10/grf-01-06.mot
datacolumns 19
datarows 10
range 1.39200000 1.42800000
endheader

                time	     ground_force_vx	     ground_force_vy	     ground_force_vz	     ground_force_px	     ground_force_py	     ground_force_pz	   l_ground_force_vx	   l_ground_force_vy	   l_ground_force_vz	   l_ground_force_px	   l_ground_force_py	   l_ground_force_pz	     ground_torque_x	     ground_torque_y	     ground_torque_z	   l_ground_torque_x	   l_ground_torque_y	   l_ground_torque_z	
          1.39200000	        -20.16943645	        438.42514999	        -23.12048187	          0.76272762	          0.00000000	          0.07343631	          0.00000000	          0.00000000	          0.00000000	          0.00000000	          0.00000000	          0.00000000	          0.00000000	          1.37780648	          0.00000000	          0.00000000	          0.00000000	          0.00000000	
          1.39600000	        -20.53923452	        433.20223825	        -23.90628759	          0.76510930	          0.00000000	          0.07354522	          0.00000000	          0.00000000	          0.00000000	          0.00000000	          0.00000000	          0.00000000	          0.00000000	          1.55084857	          0.00000000	          0.00000000	          0.00000000	          0.00000000	
          1.40000000	        -19.85571978	        428.81515776	        -24.78517092	          0.76724013	          0.00000000	          0.07364661	          0.00000000	          0.00000000	          0.00000000	          0.00000000	          0.00000000	          0.00000000	          0.00000000	          1.71883104	          0.00000000	          0.00000000	          0.00000000	          0.00000000	
          1.40400000	        -18.00716695	        425.29201712	        -25.57026053	          0.76905705	          0.00000000	          0.07374350	          0.00000000	          0.00000000	          0.00000000	          0.00000000	          0.00000000	          0.00000000	          0.00000000	          1.85898906	          0.00000000	          0.00000000	          0.00000000	          0.00000000	
          1.40800000	        -15.19323753	        422.65058023	        -26.12349950	          0.77059648	          0.00000000	          0.07384169	          0.00000000	          0.00000000	          0.00000000	          0.00000000	          0.00000000	          0.00000000	          0.00000000	          1.95713061	          0.00000000	          0.00000000	          0.00000000	          0.00000000	
          1.41200000	        -11.85061441	        420.90528362	        -26.37523709	          0.77193427	          0.00000000	          0.07393051	          0.00000000	          0.00000000	          0.00000000	          0.00000000	          0.00000000	          0.00000000	          0.00000000	          2.01070140	          0.00000000	          0.00000000	          0.00000000	          0.00000000	
          1.41600000	         -8.52124738	        420.05584471	        -26.32202614	          0.77315294	          0.00000000	          0.07399005	          0.00000000	          0.00000000	          0.00000000	          0.00000000	          0.00000000	          0.00000000	          0.00000000	          2.02877587	          0.00000000	          0.00000000	          0.00000000	          0.00000000	
          1.42000000	         -5.70502246	        420.07313627	        -26.01583903	          0.77434410	          0.00000000	          0.07400432	          0.00000000	          0.00000000	          0.00000000	          0.00000000	          0.00000000	          0.00000000	          0.00000000	          2.02866861	          0.00000000	          0.00000000	          0.00000000	          0.00000000	
          1.42400000	         -3.73116969	        420.90146016	        -25.55241606	          0.77558758	          0.00000000	          0.07396501	          0.00000000	          0.00000000	          0.00000000	          0.00000000	          0.00000000	          0.00000000	          0.00000000	          2.03025592	          0.00000000	          0.00000000	          0.00000000	          0.00000000	
          1.42800000	         -2.67726513	        422.46809412	        -25.05671748	          0.77692182	          0.00000000	          0.07387848	          0.00000000	          0.00000000	          0.00000000	          0.00000000	          0.00000000	          0.00000000	          0.00000000	          2.05018340	          0.00000000	          0.00000000	          0.00000000	          0.00000000	
